<svg xmlns="http://www.w3.org/2000/svg" class="diagram-root" style="background: #f5f6f6" xmlns:xlink="http://www.w3.org/1999/xlink"><style>.diagram-root { font-family: "Helvetica Neue", sans-serif; font-size: 12px; } .t { overflow: visible; } .t-bg { y: 40; fill: #fff;   } .th { fill: #005aa0;   } .tht { fill: #fff; font-size: 14px;  } .tf { fill: #323c46; overflow: visible; } .tf.pk { fill: #005aa0; font-weight: bold; } .tf.fk { font-weight: bold; } .ty { fill: #adb1b5; font-weight: normal; text-anchor: end; } .r { fill: transparent; stroke: #c3c3c3; stroke-width: 1; } .l { stroke: 1; } .i { fill: #c2c7ce; stroke: #c2c7ce; } .i.ix { fill: #afb3b6; stroke: #000; } .fa { fill: transparent; overflow: visible; } .fa .bg.hover { fill: #f7f7f7; } .c { cy: 12; r: 4; stroke: #d2d2dc; fill: #d2d2dc; } .hr { fill: transparent; stroke: #323c46; stroke-opacity: 0.035; stroke-width: 13; } .dc { stroke: #fa5a3c; fill: #fa5a3c; } .x { stroke: white; stroke-width: 1; } .hl .th { fill: #1b9bff; } .hl .tht {  } .fhl .bg { fill: #e7f4ff; } .fhls .bg {  } .r.hl { stroke: #1b9bff; } .dim { opacity: 0.25; }</style><g class="drawing-wrapper" transform="translate(77.4874 71.8395) scale(1.3)"><g class="rs"><path class="r" id="h1139284389" d="M 451.368 58.7085 m -1 0 a 1 1 0 1 0 2 0 a 1 1 0 1 0 -2 0 M 451.368 58.7085 m -0.5 0 a 0.5 0.5 0 1 0 1 0 a 0.5 0.5 0 1 0 -1 0 M 451.368 58.7085 L 451.368 58.7085 L 439.368 58.7085 M 451.368 64.7085 m -1 0 a 1 1 0 1 0 2 0 a 1 1 0 1 0 -2 0 M 451.368 64.7085 m -0.5 0 a 0.5 0.5 0 1 0 1 0 a 0.5 0.5 0 1 0 -1 0 M 451.368 64.7085 L 451.368 64.7085 L 444.368 58.7085 L 451.368 52.7085 M 451.368 52.7085 m -1 0 a 1 1 0 1 0 2 0 a 1 1 0 1 0 -2 0 M 451.368 52.7085 m -0.5 0 a 0.5 0.5 0 1 0 1 0 a 0.5 0.5 0 1 0 -1 0 M 439.368 58.7085 C 382.22 58.7085 384.901 370.176 434.901 370.176 M 446.901 370.176 m -1 0 a 1 1 0 1 0 2 0 a 1 1 0 1 0 -2 0 M 446.901 370.176 m -0.5 0 a 0.5 0.5 0 1 0 1 0 a 0.5 0.5 0 1 0 -1 0 M 446.901 370.176 L 446.901 370.176 L 434.901 370.176 M 440.901 376.176 L 440.901 376.176 L 440.901 364.176" /><path class="r" id="h4223752257" d="M 583.38 83.7085 m -1 0 a 1 1 0 1 0 2 0 a 1 1 0 1 0 -2 0 M 583.38 83.7085 m -0.5 0 a 0.5 0.5 0 1 0 1 0 a 0.5 0.5 0 1 0 -1 0 M 583.38 83.7085 L 583.38 83.7085 L 595.38 83.7085 M 583.38 89.7085 m -1 0 a 1 1 0 1 0 2 0 a 1 1 0 1 0 -2 0 M 583.38 89.7085 m -0.5 0 a 0.5 0.5 0 1 0 1 0 a 0.5 0.5 0 1 0 -1 0 M 583.38 89.7085 L 583.38 89.7085 L 590.38 83.7085 L 583.38 77.7085 M 583.38 77.7085 m -1 0 a 1 1 0 1 0 2 0 a 1 1 0 1 0 -2 0 M 583.38 77.7085 m -0.5 0 a 0.5 0.5 0 1 0 1 0 a 0.5 0.5 0 1 0 -1 0 M 595.38 83.7085 C 645.38 83.7085 745.622 12.5 428.31 12.5 M 416.31 12.5 m -1 0 a 1 1 0 1 0 2 0 a 1 1 0 1 0 -2 0 M 416.31 12.5 m -0.5 0 a 0.5 0.5 0 1 0 1 0 a 0.5 0.5 0 1 0 -1 0 M 416.31 12.5 L 416.31 12.5 L 428.31 12.5 M 422.31 18.5 L 422.31 18.5 L 422.31 6.5" /><path class="r" id="h4024103493" d="M 39.7692 89.7531 m -1 0 a 1 1 0 1 0 2 0 a 1 1 0 1 0 -2 0 M 39.7692 89.7531 m -0.5 0 a 0.5 0.5 0 1 0 1 0 a 0.5 0.5 0 1 0 -1 0 M 39.7692 89.7531 L 39.7692 89.7531 L 27.7692 89.7531 M 39.7692 95.7531 m -1 0 a 1 1 0 1 0 2 0 a 1 1 0 1 0 -2 0 M 39.7692 95.7531 m -0.5 0 a 0.5 0.5 0 1 0 1 0 a 0.5 0.5 0 1 0 -1 0 M 39.7692 95.7531 L 39.7692 95.7531 L 32.7692 89.7531 L 39.7692 83.7531 M 39.7692 83.7531 m -1 0 a 1 1 0 1 0 2 0 a 1 1 0 1 0 -2 0 M 39.7692 83.7531 m -0.5 0 a 0.5 0.5 0 1 0 1 0 a 0.5 0.5 0 1 0 -1 0 M 27.7692 89.7531 C -22.2308 89.7531 -134.533 12.5 214.939 12.5 M 226.939 12.5 m -1 0 a 1 1 0 1 0 2 0 a 1 1 0 1 0 -2 0 M 226.939 12.5 m -0.5 0 a 0.5 0.5 0 1 0 1 0 a 0.5 0.5 0 1 0 -1 0 M 226.939 12.5 L 226.939 12.5 L 214.939 12.5 M 220.939 18.5 L 220.939 18.5 L 220.939 6.5" /><path class="r" id="h2286254435" d="M 171.78 114.753 m -1 0 a 1 1 0 1 0 2 0 a 1 1 0 1 0 -2 0 M 171.78 114.753 m -0.5 0 a 0.5 0.5 0 1 0 1 0 a 0.5 0.5 0 1 0 -1 0 M 171.78 114.753 L 171.78 114.753 L 183.78 114.753 M 171.78 120.753 m -1 0 a 1 1 0 1 0 2 0 a 1 1 0 1 0 -2 0 M 171.78 120.753 m -0.5 0 a 0.5 0.5 0 1 0 1 0 a 0.5 0.5 0 1 0 -1 0 M 171.78 120.753 L 171.78 120.753 L 178.78 114.753 L 171.78 108.753 M 171.78 108.753 m -1 0 a 1 1 0 1 0 2 0 a 1 1 0 1 0 -2 0 M 171.78 108.753 m -0.5 0 a 0.5 0.5 0 1 0 1 0 a 0.5 0.5 0 1 0 -1 0 M 183.78 114.753 Q 246.56 114.753 309.34 242.46 T 434.901 370.176 M 446.901 370.176 m -1 0 a 1 1 0 1 0 2 0 a 1 1 0 1 0 -2 0 M 446.901 370.176 m -0.5 0 a 0.5 0.5 0 1 0 1 0 a 0.5 0.5 0 1 0 -1 0 M 446.901 370.176 L 446.901 370.176 L 434.901 370.176 M 440.901 376.176 L 440.901 376.176 L 440.901 364.176" /><path class="r" id="h3177548053" d="M 799.11 86.0769 m -1 0 a 1 1 0 1 0 2 0 a 1 1 0 1 0 -2 0 M 799.11 86.0769 m -0.5 0 a 0.5 0.5 0 1 0 1 0 a 0.5 0.5 0 1 0 -1 0 M 799.11 86.0769 L 799.11 86.0769 L 811.11 86.0769 M 799.11 92.0769 m -1 0 a 1 1 0 1 0 2 0 a 1 1 0 1 0 -2 0 M 799.11 92.0769 m -0.5 0 a 0.5 0.5 0 1 0 1 0 a 0.5 0.5 0 1 0 -1 0 M 799.11 92.0769 L 799.11 92.0769 L 806.11 86.0769 L 799.11 80.0769 M 799.11 80.0769 m -1 0 a 1 1 0 1 0 2 0 a 1 1 0 1 0 -2 0 M 799.11 80.0769 m -0.5 0 a 0.5 0.5 0 1 0 1 0 a 0.5 0.5 0 1 0 -1 0 M 811.11 86.0769 C 861.11 86.0769 963.218 370.176 640.93 370.176 M 628.93 370.176 m -1 0 a 1 1 0 1 0 2 0 a 1 1 0 1 0 -2 0 M 628.93 370.176 m -0.5 0 a 0.5 0.5 0 1 0 1 0 a 0.5 0.5 0 1 0 -1 0 M 628.93 370.176 L 628.93 370.176 L 640.93 370.176 M 634.93 376.176 L 634.93 376.176 L 634.93 364.176" /><path class="r" id="h3000826536" d="M 214.11 274.885 m -1 0 a 1 1 0 1 0 2 0 a 1 1 0 1 0 -2 0 M 214.11 274.885 m -0.5 0 a 0.5 0.5 0 1 0 1 0 a 0.5 0.5 0 1 0 -1 0 M 214.11 274.885 L 214.11 274.885 L 226.11 274.885 M 214.11 280.885 m -1 0 a 1 1 0 1 0 2 0 a 1 1 0 1 0 -2 0 M 214.11 280.885 m -0.5 0 a 0.5 0.5 0 1 0 1 0 a 0.5 0.5 0 1 0 -1 0 M 214.11 280.885 L 214.11 280.885 L 221.11 274.885 L 214.11 268.885 M 214.11 268.885 m -1 0 a 1 1 0 1 0 2 0 a 1 1 0 1 0 -2 0 M 214.11 268.885 m -0.5 0 a 0.5 0.5 0 1 0 1 0 a 0.5 0.5 0 1 0 -1 0 M 226.11 274.885 Q 278.31 274.885 330.51 322.53 T 434.901 370.176 M 446.901 370.176 m -1 0 a 1 1 0 1 0 2 0 a 1 1 0 1 0 -2 0 M 446.901 370.176 m -0.5 0 a 0.5 0.5 0 1 0 1 0 a 0.5 0.5 0 1 0 -1 0 M 446.901 370.176 L 446.901 370.176 L 434.901 370.176 M 440.901 376.176 L 440.901 376.176 L 440.901 364.176" /></g><g class="hrs" /><g class="ts"><svg class="t" id="h1090417462" x="451.368" y="1.70846" width="132.01" height="150"><rect class="th" width="132.01" height="40" /><text class="tht" x="13" y="25">dept_emp</text><rect class="t-bg" y="40" width="132.01" height="110" /><text class="tf fk" x="13" y="61">emp_no<tspan class="ty" x="119.01">int</tspan></text><text class="tf fk" x="13" y="86">dept_no<tspan class="ty" x="119.01">int</tspan></text><text class="tf" x="13" y="111">from_date<tspan class="ty" x="119.01">DATE</tspan></text><text class="tf" x="13" y="136">to_date<tspan class="ty" x="119.01">DATE</tspan></text></svg><svg class="t" id="h311790747" x="69.4231" y="217.885" width="144.69" height="150"><rect class="th" width="144.69" height="40" /><text class="tht" x="13" y="25">titles</text><rect class="t-bg" y="40" width="144.69" height="110" /><text class="tf fk" x="13" y="61">emp_no<tspan class="ty" x="131.69">int</tspan></text><text class="tf" x="13" y="86">title<tspan class="ty" x="131.69">VARCHAR(25)</tspan></text><text class="tf" x="13" y="111">from_date<tspan class="ty" x="131.69">DATE</tspan></text><text class="tf" x="13" y="136">to_date<tspan class="ty" x="131.69">DATE</tspan></text></svg><svg class="t" id="h1639608377" x="446.901" y="313.176" width="182.03" height="200"><rect class="th" width="182.03" height="40" /><text class="tht" x="13" y="25">employees</text><rect class="t-bg" y="40" width="182.03" height="160" /><text class="tf pk" x="13" y="61">emp_no<tspan class="ty" x="169.03">INT</tspan></text><path class="i pk" transform="translate(129.7 48) scale(0.65)" d="M 7 14 A 2 2 0 0 1 5 12 A 2 2 0 0 1 7 10 A 2 2 0 0 1 9 12 A 2 2 0 0 1 7 14 M 12.65 10 C 11.83 7.67 9.61 6 7 6 A 6 6 0 0 0 1 12 A 6 6 0 0 0 7 18 C 9.61 18 11.83 16.33 12.65 14 H 17 V 18 H 21 V 14 H 23 V 10 H 12.65 Z" /><text class="tf" x="13" y="86">birth_date<tspan class="ty" x="169.03">DATE</tspan></text><text class="tf" x="13" y="111">first_name<tspan class="ty" x="169.03">VARCHAR(30)</tspan></text><text class="tf" x="13" y="136">last_name<tspan class="ty" x="169.03">VARCHAR(30)</tspan></text><text class="tf" x="13" y="161">gender<tspan class="ty" x="169.03">VARCHAR(1)</tspan></text><text class="tf" x="13" y="186">hire_date<tspan class="ty" x="169.03">DATE</tspan></text></svg><svg class="t" id="h4180888202" x="226.939" y="-44.5" width="189.37" height="100"><rect class="th" width="189.37" height="40" /><text class="tht" x="13" y="25">department</text><rect class="t-bg" y="40" width="189.37" height="60" /><text class="tf pk" x="13" y="61">dept_no<tspan class="ty" x="176.37">VARCHAR(10)</tspan></text><path class="i pk" transform="translate(76.35 48) scale(0.65)" d="M 7 14 A 2 2 0 0 1 5 12 A 2 2 0 0 1 7 10 A 2 2 0 0 1 9 12 A 2 2 0 0 1 7 14 M 12.65 10 C 11.83 7.67 9.61 6 7 6 A 6 6 0 0 0 1 12 A 6 6 0 0 0 7 18 C 9.61 18 11.83 16.33 12.65 14 H 17 V 18 H 21 V 14 H 23 V 10 H 12.65 Z" /><text class="tf" x="13" y="86">dept_name<tspan class="ty" x="176.37">VARCHAR(40)</tspan></text></svg><svg class="t" id="h2472833127" x="667.099" y="29.0769" width="132.01" height="150"><rect class="th" width="132.01" height="40" /><text class="tht" x="13" y="25">salaries</text><rect class="t-bg" y="40" width="132.01" height="110" /><text class="tf fk" x="13" y="61">emp_no<tspan class="ty" x="119.01">int</tspan></text><text class="tf" x="13" y="86">salary<tspan class="ty" x="119.01">INT</tspan></text><text class="tf" x="13" y="111">from_date<tspan class="ty" x="119.01">DATE</tspan></text><text class="tf" x="13" y="136">to_date<tspan class="ty" x="119.01">DATE</tspan></text></svg><svg class="t" id="h1676682957" x="39.7692" y="32.7531" width="132.01" height="150"><rect class="th" width="132.01" height="40" /><text class="tht" x="13" y="25">dept_manager</text><rect class="t-bg" y="40" width="132.01" height="110" /><text class="tf fk" x="13" y="61">dept_no<tspan class="ty" x="119.01">int</tspan></text><text class="tf fk" x="13" y="86">emp_no<tspan class="ty" x="119.01">int</tspan></text><text class="tf" x="13" y="111">from_date<tspan class="ty" x="119.01">DATE</tspan></text><text class="tf" x="13" y="136">to_date<tspan class="ty" x="119.01">DATE</tspan></text></svg></g></g></svg>="0" cy="12" r="4" /><circle class="c h3320574223 r" cx="144" cy="12" r="4" /></svg><svg class="fa" y="120" width="144" height="25"><rect class="bg" width="144" height="25" /><circle class="c h1248063181 l" cx="0" cy="12" r="4" /><circle class="c h1248063181 r" cx="144" cy="12" r="4" /></svg><text class="tf fk" x="13" y="61">emp_no<tspan class="ty" x="131.69">int</tspan></text><text class="tf" x="13" y="86">title<tspan class="ty" x="131.69">VARCHAR(25)</tspan></text><text class="tf" x="13" y="111">from_date<tspan class="ty" x="131.69">DATE</tspan></text><text class="tf" x="13" y="136">to_date<tspan class="ty" x="131.69">DATE</tspan></text></svg></g></g></svg>