<svg xmlns="http://www.w3.org/2000/svg" class="diagram-root" style="background: #f5f6f6" xmlns:xlink="http://www.w3.org/1999/xlink"><style>.diagram-root { font-family: "Helvetica Neue", sans-serif; font-size: 12px; } .t { overflow: visible; } .t-bg { y: 40; fill: #fff;   } .th { fill: #005aa0;   } .tht { fill: #fff; font-size: 14px;  } .tf { fill: #323c46; overflow: visible; } .tf.pk { fill: #005aa0; font-weight: bold; } .tf.fk { font-weight: bold; } .ty { fill: #adb1b5; font-weight: normal; text-anchor: end; } .r { fill: transparent; stroke: #c3c3c3; stroke-width: 1; } .l { stroke: 1; } .i { fill: #c2c7ce; stroke: #c2c7ce; } .i.ix { fill: #afb3b6; stroke: #000; } .fa { fill: transparent; overflow: visible; } .fa .bg.hover { fill: #f7f7f7; } .c { cy: 12; r: 4; stroke: #d2d2dc; fill: #d2d2dc; } .hr { fill: transparent; stroke: #323c46; stroke-opacity: 0.035; stroke-width: 13; } .dc { stroke: #fa5a3c; fill: #fa5a3c; } .x { stroke: white; stroke-width: 1; } .hl .th { fill: #1b9bff; } .hl .tht {  } .fhl .bg { fill: #e7f4ff; } .fhls .bg {  } .r.hl { stroke: #1b9bff; } .dim { opacity: 0.25; }</style><g class="drawing-wrapper" transform="translate(77.4874 71.8395) scale(1.2)"><g class="rs"><path class="r" id="h1139284389" d="M 391.84 77.1667 m -1 0 a 1 1 0 1 0 2 0 a 1 1 0 1 0 -2 0 M 391.84 77.1667 m -0.5 0 a 0.5 0.5 0 1 0 1 0 a 0.5 0.5 0 1 0 -1 0 M 391.84 77.1667 L 391.84 77.1667 L 403.84 77.1667 M 391.84 83.1667 m -1 0 a 1 1 0 1 0 2 0 a 1 1 0 1 0 -2 0 M 391.84 83.1667 m -0.5 0 a 0.5 0.5 0 1 0 1 0 a 0.5 0.5 0 1 0 -1 0 M 391.84 83.1667 L 391.84 83.1667 L 398.84 77.1667 L 391.84 71.1667 M 391.84 71.1667 m -1 0 a 1 1 0 1 0 2 0 a 1 1 0 1 0 -2 0 M 391.84 71.1667 m -0.5 0 a 0.5 0.5 0 1 0 1 0 a 0.5 0.5 0 1 0 -1 0 M 403.84 77.1667 Q 451.79 77.1667 499.75 141.75 T 595.667 206.333 M 607.667 206.333 m -1 0 a 1 1 0 1 0 2 0 a 1 1 0 1 0 -2 0 M 607.667 206.333 m -0.5 0 a 0.5 0.5 0 1 0 1 0 a 0.5 0.5 0 1 0 -1 0 M 607.667 206.333 L 607.667 206.333 L 595.667 206.333 M 601.667 212.333 L 601.667 212.333 L 601.667 200.333" /><path class="r" id="h4223752257" d="M 391.84 102.167 m -1 0 a 1 1 0 1 0 2 0 a 1 1 0 1 0 -2 0 M 391.84 102.167 m -0.5 0 a 0.5 0.5 0 1 0 1 0 a 0.5 0.5 0 1 0 -1 0 M 391.84 102.167 L 391.84 102.167 L 403.84 102.167 M 391.84 108.167 m -1 0 a 1 1 0 1 0 2 0 a 1 1 0 1 0 -2 0 M 391.84 108.167 m -0.5 0 a 0.5 0.5 0 1 0 1 0 a 0.5 0.5 0 1 0 -1 0 M 391.84 108.167 L 391.84 108.167 L 398.84 102.167 L 391.84 96.1667 M 391.84 96.1667 m -1 0 a 1 1 0 1 0 2 0 a 1 1 0 1 0 -2 0 M 391.84 96.1667 m -0.5 0 a 0.5 0.5 0 1 0 1 0 a 0.5 0.5 0 1 0 -1 0 M 403.84 102.167 C 453.84 102.167 541.62 252.5 257.54 252.5 M 245.54 252.5 m -1 0 a 1 1 0 1 0 2 0 a 1 1 0 1 0 -2 0 M 245.54 252.5 m -0.5 0 a 0.5 0.5 0 1 0 1 0 a 0.5 0.5 0 1 0 -1 0 M 245.54 252.5 L 245.54 252.5 L 257.54 252.5 M 251.54 258.5 L 251.54 258.5 L 251.54 246.5" /><path class="r" id="h4024103493" d="M 39 32.8333 m -1 0 a 1 1 0 1 0 2 0 a 1 1 0 1 0 -2 0 M 39 32.8333 m -0.5 0 a 0.5 0.5 0 1 0 1 0 a 0.5 0.5 0 1 0 -1 0 M 39 32.8333 L 39 32.8333 L 27 32.8333 M 39 38.8333 m -1 0 a 1 1 0 1 0 2 0 a 1 1 0 1 0 -2 0 M 39 38.8333 m -0.5 0 a 0.5 0.5 0 1 0 1 0 a 0.5 0.5 0 1 0 -1 0 M 39 38.8333 L 39 38.8333 L 32 32.8333 L 39 26.8333 M 39 26.8333 m -1 0 a 1 1 0 1 0 2 0 a 1 1 0 1 0 -2 0 M 39 26.8333 m -0.5 0 a 0.5 0.5 0 1 0 1 0 a 0.5 0.5 0 1 0 -1 0 M 27 32.8333 C -23 32.8333 -33.3 252.5 44.1667 252.5 M 56.1667 252.5 m -1 0 a 1 1 0 1 0 2 0 a 1 1 0 1 0 -2 0 M 56.1667 252.5 m -0.5 0 a 0.5 0.5 0 1 0 1 0 a 0.5 0.5 0 1 0 -1 0 M 56.1667 252.5 L 56.1667 252.5 L 44.1667 252.5 M 50.1667 258.5 L 50.1667 258.5 L 50.1667 246.5" /><path class="r" id="h1990908834" d="M 171.01 57.8333 m -1 0 a 1 1 0 1 0 2 0 a 1 1 0 1 0 -2 0 M 171.01 57.8333 m -0.5 0 a 0.5 0.5 0 1 0 1 0 a 0.5 0.5 0 1 0 -1 0 M 171.01 57.8333 L 171.01 57.8333 L 183.01 57.8333 M 171.01 63.8333 m -1 0 a 1 1 0 1 0 2 0 a 1 1 0 1 0 -2 0 M 171.01 63.8333 m -0.5 0 a 0.5 0.5 0 1 0 1 0 a 0.5 0.5 0 1 0 -1 0 M 171.01 63.8333 L 171.01 63.8333 L 178.01 57.8333 L 171.01 51.8333 M 171.01 51.8333 m -1 0 a 1 1 0 1 0 2 0 a 1 1 0 1 0 -2 0 M 171.01 51.8333 m -0.5 0 a 0.5 0.5 0 1 0 1 0 a 0.5 0.5 0 1 0 -1 0 M 183.01 57.8333 Q 199.21 57.8333 215.42 67.5 T 247.833 77.1667 M 259.833 77.1667 m -1 0 a 1 1 0 1 0 2 0 a 1 1 0 1 0 -2 0 M 259.833 77.1667 m -0.5 0 a 0.5 0.5 0 1 0 1 0 a 0.5 0.5 0 1 0 -1 0 M 259.833 77.1667 L 259.833 77.1667 L 247.833 77.1667 M 253.833 83.1667 L 253.833 83.1667 L 253.833 71.1667" /><path class="r" id="h3177548053" d="M 478.34 393 m -1 0 a 1 1 0 1 0 2 0 a 1 1 0 1 0 -2 0 M 478.34 393 m -0.5 0 a 0.5 0.5 0 1 0 1 0 a 0.5 0.5 0 1 0 -1 0 M 478.34 393 L 478.34 393 L 490.34 393 M 478.34 399 m -1 0 a 1 1 0 1 0 2 0 a 1 1 0 1 0 -2 0 M 478.34 399 m -0.5 0 a 0.5 0.5 0 1 0 1 0 a 0.5 0.5 0 1 0 -1 0 M 478.34 399 L 478.34 399 L 485.34 393 L 478.34 387 M 478.34 387 m -1 0 a 1 1 0 1 0 2 0 a 1 1 0 1 0 -2 0 M 478.34 387 m -0.5 0 a 0.5 0.5 0 1 0 1 0 a 0.5 0.5 0 1 0 -1 0 M 490.34 393 Q 516.67 393 543 299.67 T 595.667 206.333 M 607.667 206.333 m -1 0 a 1 1 0 1 0 2 0 a 1 1 0 1 0 -2 0 M 607.667 206.333 m -0.5 0 a 0.5 0.5 0 1 0 1 0 a 0.5 0.5 0 1 0 -1 0 M 607.667 206.333 L 607.667 206.333 L 595.667 206.333 M 601.667 212.333 L 601.667 212.333 L 601.667 200.333" /><path class="r" id="h3000826536" d="M 167.19 389.5 m -1 0 a 1 1 0 1 0 2 0 a 1 1 0 1 0 -2 0 M 167.19 389.5 m -0.5 0 a 0.5 0.5 0 1 0 1 0 a 0.5 0.5 0 1 0 -1 0 M 167.19 389.5 L 167.19 389.5 L 179.19 389.5 M 167.19 395.5 m -1 0 a 1 1 0 1 0 2 0 a 1 1 0 1 0 -2 0 M 167.19 395.5 m -0.5 0 a 0.5 0.5 0 1 0 1 0 a 0.5 0.5 0 1 0 -1 0 M 167.19 395.5 L 167.19 395.5 L 174.19 389.5 L 167.19 383.5 M 167.19 383.5 m -1 0 a 1 1 0 1 0 2 0 a 1 1 0 1 0 -2 0 M 167.19 383.5 m -0.5 0 a 0.5 0.5 0 1 0 1 0 a 0.5 0.5 0 1 0 -1 0 M 179.19 389.5 Q 283.31 389.5 387.43 297.92 T 595.667 206.333 M 607.667 206.333 m -1 0 a 1 1 0 1 0 2 0 a 1 1 0 1 0 -2 0 M 607.667 206.333 m -0.5 0 a 0.5 0.5 0 1 0 1 0 a 0.5 0.5 0 1 0 -1 0 M 607.667 206.333 L 607.667 206.333 L 595.667 206.333 M 601.667 212.333 L 601.667 212.333 L 601.667 200.333" /></g><g class="hrs" /><g class="ts"><svg class="t" id="h1676682957" x="39" y="-24.1667" width="132.01" height="150"><rect class="th" width="132.01" height="40" /><text class="tht" x="13" y="25">dept_manager</text><rect class="t-bg" y="40" width="132.01" height="110" /><text class="tf fk" x="13" y="61">dept_no<tspan class="ty" x="119.01">int</tspan></text><text class="tf fk" x="13" y="86">emp_no<tspan class="ty" x="119.01">int</tspan></text><text class="tf" x="13" y="111">from_date<tspan class="ty" x="119.01">DATE</tspan></text><text class="tf" x="13" y="136">to_date<tspan class="ty" x="119.01">DATE</tspan></text></svg><svg class="t" id="h1090417462" x="259.833" y="20.1667" width="132.01" height="150"><rect class="th" width="132.01" height="40" /><text class="tht" x="13" y="25">dept_emp</text><rect class="t-bg" y="40" width="132.01" height="110" /><text class="tf fk" x="13" y="61">emp_no<tspan class="ty" x="119.01">int</tspan></text><text class="tf fk" x="13" y="86">dept_no<tspan class="ty" x="119.01">int</tspan></text><text class="tf" x="13" y="111">from_date<tspan class="ty" x="119.01">DATE</tspan></text><text class="tf" x="13" y="136">to_date<tspan class="ty" x="119.01">DATE</tspan></text></svg><svg class="t" id="h4180888202" x="56.1667" y="195.5" width="189.37" height="100"><rect class="th" width="189.37" height="40" /><text class="tht" x="13" y="25">department</text><rect class="t-bg" y="40" width="189.37" height="60" /><text class="tf pk" x="13" y="61">dept_no<tspan class="ty" x="176.37">VARCHAR(10)</tspan></text><path class="i pk" transform="translate(76.35 48) scale(0.65)" d="M 7 14 A 2 2 0 0 1 5 12 A 2 2 0 0 1 7 10 A 2 2 0 0 1 9 12 A 2 2 0 0 1 7 14 M 12.65 10 C 11.83 7.67 9.61 6 7 6 A 6 6 0 0 0 1 12 A 6 6 0 0 0 7 18 C 9.61 18 11.83 16.33 12.65 14 H 17 V 18 H 21 V 14 H 23 V 10 H 12.65 Z" /><text class="tf" x="13" y="86">dept_name<tspan class="ty" x="176.37">VARCHAR(40)</tspan></text></svg><svg class="t" id="h1639608377" x="607.667" y="149.333" width="182.03" height="200"><rect class="th" width="182.03" height="40" /><text class="tht" x="13" y="25">employees</text><rect class="t-bg" y="40" width="182.03" height="160" /><text class="tf pk" x="13" y="61">emp_no<tspan class="ty" x="169.03">INT</tspan></text><path class="i pk" transform="translate(129.7 48) scale(0.65)" d="M 7 14 A 2 2 0 0 1 5 12 A 2 2 0 0 1 7 10 A 2 2 0 0 1 9 12 A 2 2 0 0 1 7 14 M 12.65 10 C 11.83 7.67 9.61 6 7 6 A 6 6 0 0 0 1 12 A 6 6 0 0 0 7 18 C 9.61 18 11.83 16.33 12.65 14 H 17 V 18 H 21 V 14 H 23 V 10 H 12.65 Z" /><text class="tf" x="13" y="86">birth_date<tspan class="ty" x="169.03">DATE</tspan></text><text class="tf" x="13" y="111">first_name<tspan class="ty" x="169.03">VARCHAR(30)</tspan></text><text class="tf" x="13" y="136">last_name<tspan class="ty" x="169.03">VARCHAR(30)</tspan></text><text class="tf" x="13" y="161">gender<tspan class="ty" x="169.03">VARCHAR(1)</tspan></text><text class="tf" x="13" y="186">hire_date<tspan class="ty" x="169.03">DATE</tspan></text></svg><svg class="t" id="h2472833127" x="346.333" y="336" width="132.01" height="150"><rect class="th" width="132.01" height="40" /><text class="tht" x="13" y="25">salaries</text><rect class="t-bg" y="40" width="132.01" height="110" /><text class="tf fk" x="13" y="61">emp_no<tspan class="ty" x="119.01">int</tspan></text><text class="tf" x="13" y="86">salary<tspan class="ty" x="119.01">INT</tspan></text><text class="tf" x="13" y="111">from_date<tspan class="ty" x="119.01">DATE</tspan></text><text class="tf" x="13" y="136">to_date<tspan class="ty" x="119.01">DATE</tspan></text></svg><svg class="t" id="h311790747" x="22.5" y="332.5" width="144.69" height="150"><rect class="th" width="144.69" height="40" /><text class="tht" x="13" y="25">titles</text><rect class="t-bg" y="40" width="144.69" height="110" /><text class="tf fk" x="13" y="61">emp_no<tspan class="ty" x="131.69">int</tspan></text><text class="tf" x="13" y="86">title<tspan class="ty" x="131.69">VARCHAR(25)</tspan></text><text class="tf" x="13" y="111">from_date<tspan class="ty" x="131.69">DATE</tspan></text><text class="tf" x="13" y="136">to_date<tspan class="ty" x="131.69">DATE</tspan></text></svg></g></g></svg>h1297255197 r" cx="144" cy="12" r="4" /></svg><svg class="fa" y="95" width="144" height="25"><rect class="bg" width="144" height="25" /><circle class="c h3320574223 l" cx="0" cy="12" r="4" /><circle class="c h3320574223 r" cx="144" cy="12" r="4" /></svg><svg class="fa" y="120" width="144" height="25"><rect class="bg" width="144" height="25" /><circle class="c h1248063181 l" cx="0" cy="12" r="4" /><circle class="c h1248063181 r" cx="144" cy="12" r="4" /></svg><text class="tf fk" x="13" y="61">emp_no<tspan class="ty" x="131.69">int</tspan></text><text class="tf" x="13" y="86">title<tspan class="ty" x="131.69">VARCHAR(25)</tspan></text><text class="tf" x="13" y="111">from_date<tspan class="ty" x="131.69">DATE</tspan></text><text class="tf" x="13" y="136">to_date<tspan class="ty" x="131.69">DATE</tspan></text></svg></g></g></svg>